<svg xmlns="http://www.w3.org/2000/svg" width="28" height="26" xmlns:v="https://vecta.io/nano"><path d="M10.459 17.65h7.082a1.2 1.2 0 1 0 0-2.4h-7.082a1.2 1.2 0 1 0 0 2.4h0zm14.565-6H2.969l3.133 11.4H14h7.838l3.186-11.4zM27.8 7.034v3.269.002.001.002c-.001.119-.018.233-.051.341l-3.841 13.92a1.2 1.2 0 0 1-1.157.881H5.184a1.2 1.2 0 0 1-1.158-.886L.249 10.644c-.018-.059-.031-.12-.039-.183a1.43 1.43 0 0 1-.01-.185V7.034a1.2 1.2 0 1 1 2.4 0V9.25h22.8V7.034a1.2 1.2 0 1 1 2.4 0h0zM8.092 2.65h11.815a1.05 1.05 0 1 0 0-2.1H8.092a1.05 1.05 0 0 0 0 2.1h0zm-3.169 3a1.2 1.2 0 0 1 1.2-1.2h15.752a1.2 1.2 0 0 1 0 2.4H6.124a1.2 1.2 0 0 1-1.2-1.2h0z" fill="#f16464" fill-rule="evenodd"/></svg>