<svg xmlns="http://www.w3.org/2000/svg" width="28" height="28" xmlns:v="https://vecta.io/nano"><path d="M18.581 16.883a1.2 1.2 0 0 1 0 1.697c-.234.234-.541.352-.848.352s-.614-.117-.848-.352l-3.732-3.732A1.2 1.2 0 0 1 12.8 14V6.848a1.2 1.2 0 1 1 2.4 0v6.655l3.381 3.38zM14 25.4C7.714 25.4 2.6 20.286 2.6 14S7.714 2.6 14 2.6 25.4 7.714 25.4 14 20.286 25.4 14 25.4h0zM14 .2A13.82 13.82 0 0 0 .2 14 13.82 13.82 0 0 0 14 27.8 13.82 13.82 0 0 0 27.8 14 13.82 13.82 0 0 0 14 .2h0z" fill="#f16464" fill-rule="evenodd"/></svg>