<svg xmlns="http://www.w3.org/2000/svg" width="16" height="28" xmlns:v="https://vecta.io/nano"><path d="M6.535 15.377c.007.06.082.183.151.254l2.605.002c.069-.07.143-.192.152-.259L9.45 2.859a.62.62 0 0 0-.152-.254l-2.605-.001c-.07.071-.145.195-.152.262l-.006 12.512zM4.76 17.081c-.429-.513-.675-1.114-.674-1.706l.007-12.521c0-.592.247-1.227.676-1.739C5.255.535 5.899.2 6.535.2h.001 2.924c1.352 0 2.441 1.427 2.44 2.627l-.007 12.488c-.001 1.2-1.09 2.584-2.442 2.584H9.45l-2.924.063c-.636 0-1.279-.301-1.765-.882h0zM14.43 8.9h-.001c-.591 0-1.071.47-1.071 1.049l-.007 7.793a1.67 1.67 0 0 1-.482 1.184c-.301.305-.697.474-1.117.474h-.001l-7.51-.005c-.42 0-.816-.172-1.117-.478a1.67 1.67 0 0 1-.481-1.183l.006-7.79C2.65 9.365 2.17 8.9 1.579 8.9h-.001C.987 8.9.507 9.366.506 9.945L.5 17.734c-.001.996.383 1.938 1.081 2.646.708.719 1.652 1.112 2.659 1.113l7.51.007h.002a3.71 3.71 0 0 0 2.657-1.114c.698-.707 1.083-1.651 1.084-2.647l.006-7.793c.001-.579-.479-1.047-1.07-1.047h0zm.259 17.7c0 .663-.549 1.2-1.225 1.2H2.485c-.677 0-1.225-.537-1.225-1.2s.548-1.2 1.225-1.2h4.436l.004-2.035c.002-.579.486-1.038 1.074-1.049.592.002 1.07.471 1.069 1.05L9.065 25.4h4.399c.677 0 1.225.537 1.225 1.2h0z" fill="#f16464" fill-rule="evenodd"/></svg>