<svg xmlns="http://www.w3.org/2000/svg" width="28" height="26" xmlns:v="https://vecta.io/nano"><path d="M15.062 20.71c.279-.282.438-.666.438-1.062a1.51 1.51 0 0 0-.438-1.062c-.282-.279-.666-.438-1.062-.438a1.51 1.51 0 0 0-1.5 1.5c0 .396.159.78.438 1.062a1.51 1.51 0 0 0 2.124 0h0zm.138-4.983v-5.581a1.2 1.2 0 1 0-2.4 0v5.582a1.2 1.2 0 1 0 2.4 0h0zM3.461 22.9h21.078L14 4.331 3.461 22.9zM26.6 25.3H1.4a1.2 1.2 0 0 1-1.043-1.792l12.6-22.2a1.2 1.2 0 0 1 2.087 0l12.6 22.2A1.2 1.2 0 0 1 26.6 25.3h0z" fill="#f16464" fill-rule="evenodd"/></svg>